<svg width="177" height="43" viewBox="0 0 177 43" fill="none" xmlns="http://www.w3.org/2000/svg">
<path d="M0.00380707 11.7056C0.159546 11.4214 4.62406 13.2735 9.14914 10.4312C10.049 9.86269 10.9834 9.51427 11.9351 9.31256C11.3208 8.58822 11.0094 7.96474 10.9748 7.90973L10.2134 6.35103L11.7448 7.01118C14.1068 8.02892 15.794 6.70861 18.8655 4.31555C19.4798 3.83877 20.1374 3.32532 20.8469 2.79352C23.4771 0.831396 24.3164 1.08812 25.8132 1.79412C26.6525 2.18838 27.7859 2.711 29.9662 2.81186L30.0441 2.78435C30.0441 2.78435 30.0528 2.80269 30.0528 2.81186C30.2777 2.82103 30.5027 2.8302 30.7449 2.8302C35.2614 2.8302 35.7805 1.46404 36.0314 0.813058C36.1352 0.528825 36.3689 -0.0671498 37.0005 0.00620079C37.6753 0.0887202 38.4973 1.1523 39.449 3.16945C39.6394 3.50869 40.8593 5.93843 38.852 9.19336C38.7828 9.36757 38.6444 9.61513 38.3502 9.85352C38.9126 11.1647 37.2168 13.3652 37.2168 13.3652C37.5369 12.0999 37.1475 11.0088 36.9053 10.477C36.8793 10.4862 36.8534 10.4862 36.8188 10.4953C36.9399 11.0913 37.0264 12.3291 36.092 13.6861C36.092 13.6861 36.2218 11.5131 35.6853 10.6329C35.6853 10.6329 35.6594 11.1555 35.2008 11.9073C34.7595 12.6317 35.3565 11.2655 34.4913 10.6329C34.474 10.6329 34.4654 10.6329 34.4481 10.6329C34.5173 10.7521 34.5692 11.0271 34.1366 11.6414C34.1366 11.6414 33.7992 10.9079 33.1243 10.5228C30.4248 10.2019 29.6375 10.532 29.4558 10.642L29.4385 10.7154C29.4298 10.7704 28.6165 15.8133 30.8488 17.9679C31.7486 18.8298 32.8301 19.4624 33.9462 19.8292C34.5173 19.4258 34.8115 18.8115 34.8115 18.8115C35.3392 19.5541 35.1489 19.82 35.0797 19.875C36.066 19.2699 35.4258 17.7937 35.8757 18.5456C36.3342 19.2974 36.3602 19.82 36.3602 19.82C36.8966 18.9398 36.7668 16.7668 36.7668 16.7668C37.7705 18.2155 37.6061 19.5358 37.4763 20.0676C37.5023 20.0584 37.5282 20.0584 37.5455 20.0492C37.7965 19.545 38.2291 18.408 37.9003 17.0877L38.7049 19.5816C38.8088 19.5175 38.9212 19.4533 39.0164 19.3799L39.8384 18.7564L39.9682 19.82C40.1152 21.0211 39.8211 23.5701 37.6234 24.6245L37.1735 24.8354L36.8793 24.4136C36.8188 24.3219 35.3219 22.2039 32.8907 22.9558C31.3506 23.4325 30.2258 24.2852 29.7413 25.3672C29.3606 26.2015 29.3779 27.1367 29.7759 28.1545L30.3123 29.5115L29.0059 29.0164C28.9626 28.998 28.7636 28.9155 28.4608 28.778C29.6721 31.9871 32.8042 32.7297 33.2195 32.4272C33.2195 32.4272 31.1689 34.6827 28.703 34.9853C28.8415 36.5806 30.3989 37.4242 30.3989 37.4242C30.3989 37.4242 27.2235 40.9175 23.3906 39.1387C22.8196 38.8728 22.2831 38.5886 21.7986 38.1852C21.3227 39.533 20.2585 40.6699 20.2585 40.6699C18.978 40.459 18.208 39.5513 17.7754 38.5519C17.1351 39.4688 15.1537 40.1565 14.998 39.9639C14.8423 39.7622 15.5171 37.1308 15.1624 36.0855C14.8163 35.0403 14.0809 34.1417 13.3022 33.4357C13.5531 34.1051 13.7002 34.8386 13.5964 35.5904C13.4147 36.9657 12.4889 38.0843 10.8363 38.9187C7.25432 40.7341 6.14684 42.7788 5.92188 42.9988C5.80941 43.1088 1.98515 35.5354 3.67232 31.4461C3.81076 31.116 3.97515 30.8134 4.1655 30.52C3.82806 30.6209 3.49063 30.6851 3.16185 30.7034C1.66502 30.8043 0.687332 29.1997 0.687332 29.1997C0.687332 29.1997 4.27797 28.8605 6.54484 21.9472C6.54484 21.9472 3.31758 23.0199 3.15319 22.8182C2.9888 22.6074 5.28162 18.0504 8.48292 16.07C5.03071 16.3267 -0.160583 11.9899 0.00380707 11.7056ZM13.0253 8.64323C13.1724 8.80827 13.3454 8.96414 13.5271 9.12918C15.3354 9.07417 17.1178 9.51427 18.6579 10.2019C19.748 9.88103 20.8901 9.25755 22.0841 8.34983C22.0841 7.92807 22.162 7.3596 22.4216 6.78196C22.4216 6.77279 22.4302 6.76363 22.4302 6.76363C22.1533 6.93783 21.8505 7.13038 21.5044 7.35043C20.1807 8.2123 18.9953 8.64323 17.9484 8.64323C17.5937 8.64323 17.2562 8.59739 16.9447 8.49653C16.5035 8.359 16.192 8.13895 15.9324 7.9189C14.9634 8.42318 14.0203 8.70742 13.0253 8.64323ZM21.9717 12.3841C22.1533 11.999 22.3437 11.6139 22.56 11.2197C22.7503 10.7062 23.555 9.76183 26.54 8.3865C27.2062 8.07476 27.8897 7.7997 28.5473 7.52464C28.6684 7.46962 28.7896 7.42378 28.9193 7.36877C29.1097 6.69944 29.1876 6.06679 29.2049 5.50749C28.6252 5.9476 27.8724 6.14014 26.9639 6.04846C26.7563 6.03012 26.5919 5.99344 26.4275 5.96594C24.2385 8.41401 22.1447 10.1011 20.172 10.9904C20.8728 11.4306 21.4871 11.9073 21.9717 12.3841ZM22.1447 20.3885C22.759 18.4722 22.6206 16.5468 22.2312 15.2173C21.7207 17.051 21.6948 18.7748 22.1447 20.3885ZM22.958 13.2093C25.3287 12.2007 27.0591 10.8713 28.0887 9.23004C28.1233 9.17502 28.1493 9.12001 28.1839 9.065C27.7946 9.23004 27.4139 9.39508 27.0245 9.56928C26.341 9.88102 25.7873 10.1836 25.3373 10.4587C24.3077 11.0913 23.4771 12.0449 22.9667 13.191C22.9667 13.2001 22.958 13.2093 22.958 13.2093ZM24.9307 5.6817C24.8096 5.6817 24.6884 5.6817 24.5586 5.73671C24.1693 5.90175 23.8492 6.36019 23.6069 7.07536C24.0655 6.6536 24.524 6.18599 24.9913 5.69087C24.974 5.6817 24.948 5.6817 24.9307 5.6817ZM25.3287 2.96773C24.1693 2.42677 23.7367 2.21589 21.5563 3.83877C20.8469 4.37056 20.198 4.87485 19.5923 5.34246C18.7877 5.9751 18.0522 6.5344 17.3514 7.02035C17.36 7.02035 17.3687 7.02952 17.3773 7.02952C18.208 7.26791 19.376 6.92866 20.743 6.03929C23.9357 3.95796 24.5067 3.96713 25.8305 4.29721C26.1506 4.37973 26.5313 4.47142 27.0851 4.52643C27.6994 4.59061 28.1493 4.48059 28.4435 4.21469C28.53 4.14134 28.5906 4.04965 28.6511 3.95796C27.0591 3.75625 26.0728 3.32532 25.3287 2.96773ZM30.7536 4.123C30.6152 4.123 30.4767 4.123 30.3469 4.11383C30.4421 4.81067 30.4767 5.72755 30.3123 6.76363C31.9649 6.00261 33.2281 5.18659 33.4617 3.91212C32.7263 4.04965 31.8265 4.123 30.7536 4.123ZM33.2627 9.22087C36.8793 9.6518 37.6494 8.78993 37.7272 8.67991L37.7965 8.54238C39.5182 5.81007 38.4454 3.90295 38.4021 3.8296L38.3675 3.76542C38.2118 3.43534 38.0387 3.10526 37.8657 2.79352C37.5282 2.55513 37.087 2.2709 36.7149 2.15171C36.6198 2.29841 36.4986 2.43594 36.3689 2.57347C36.6544 2.96773 37.286 3.69207 37.9176 3.40784C37.9176 3.40784 37.0005 4.04965 36.0401 3.32532C35.9189 3.23363 35.8324 3.14194 35.7719 3.06859C35.4777 3.26113 35.1316 3.44451 34.7076 3.59121C34.6384 6.08513 32.4235 7.26791 29.8711 8.34983C29.7586 8.64323 29.6375 8.93663 29.4904 9.23921C30.1999 9.05583 31.3419 8.99165 33.2627 9.22087ZM30.1566 22.9374C30.8228 22.4148 31.6361 21.993 32.5706 21.7088C33.0464 21.5621 33.4963 21.4979 33.9203 21.4979C35.5469 21.4979 36.8361 22.4148 37.5455 23.2033C38.3762 22.6165 38.6703 21.7088 38.7655 21.0028C38.679 21.0762 38.5838 21.1037 38.4886 21.1128C35.9449 22.0756 32.4494 21.2412 30.0441 18.9307C28.4781 17.427 28.106 14.9697 28.0801 13.0901C26.0814 19.3249 28.9972 21.9655 30.1566 22.9374ZM28.6598 24.7987C28.8155 24.4503 29.0232 24.1294 29.2654 23.8176C26.116 21.0395 25.3806 17.1611 27.0591 12.2557C26.0295 13.1176 24.7836 13.8603 23.3041 14.4746C23.8924 16.2075 24.0828 18.7931 23.1656 21.232C23.0618 21.4979 22.9407 21.773 22.8023 22.0572C24.2126 24.762 26.8169 26.4491 28.305 27.2376C28.1926 26.3849 28.3137 25.5597 28.6598 24.7987ZM30.3729 33.1057C28.4175 32.2071 27.137 28.8605 26.7909 27.8611C25.2941 26.9442 23.382 25.4589 22.0755 23.295C21.9716 23.4509 21.8592 23.5976 21.7467 23.7535C22.6811 26.0915 23.0445 28.3654 23.0878 30.4559C24.5586 32.5097 26.1333 33.6099 27.7946 33.72C28.7723 33.7933 29.6548 33.4816 30.3729 33.1057ZM23.8319 37.9193C25.1297 38.4327 26.6611 38.286 28.4954 37.4608C27.9936 36.9657 27.5609 36.168 27.4831 34.9853C25.8997 34.8202 24.4029 33.9492 23.0186 32.3905C22.8974 34.0867 22.5773 35.6087 22.2312 36.8465C22.7157 37.3233 23.2435 37.6901 23.8319 37.9193ZM20.8209 24.762C19.9557 25.578 18.8482 26.3482 17.412 26.9625C17.7148 27.7144 18.0003 28.4754 18.2858 29.2272C19.177 31.5928 20.0855 34.0134 21.3054 35.7463C22.0063 32.9681 22.387 28.998 20.8209 24.762ZM20.9334 15.2998C19.5317 15.7032 17.9743 16.0241 16.2699 16.2534C17.187 16.9043 18.0695 17.7845 18.9347 18.9031C19.8432 20.0768 20.5786 21.2595 21.1497 22.4423C21.2449 22.3048 21.3314 22.1672 21.4179 22.0297C21.3141 21.7913 21.2103 21.5621 21.1324 21.3145C20.4835 19.4258 20.4229 17.4178 20.9334 15.2998ZM6.39775 40.5782C7.03802 39.6889 8.33584 38.7537 10.3345 37.7451C11.5891 37.1124 12.2899 36.3239 12.411 35.407C12.6619 33.5366 10.5941 31.547 10.5768 31.5286C10.3518 31.3177 10.3085 30.9601 10.4729 30.6943C10.5854 30.5017 10.7844 30.4009 10.9834 30.4009C11.0699 30.4009 11.1564 30.4192 11.2343 30.4559C11.3987 30.5384 15.2489 32.3997 16.3391 35.6362C16.6073 36.4431 16.6852 37.2683 16.5727 38.0843C16.9621 37.6626 17.2995 37.0574 17.3254 36.1955C17.3341 35.8563 17.6023 35.5721 17.9311 35.5721H17.9397C18.2685 35.5812 18.5367 35.8655 18.5454 36.2139C18.5454 36.3239 18.5713 38.6528 20.0682 39.2671C20.2672 38.8545 20.57 38.1485 20.8815 37.2316C19.2635 35.3245 18.1993 32.4822 17.161 29.704C16.8755 28.9338 16.5814 28.1545 16.2785 27.4026C14.9547 27.8519 13.406 28.1912 11.5891 28.3745C7.9638 28.7321 5.68828 29.9424 4.82306 31.9687C3.61176 34.7744 5.30758 38.5886 6.39775 40.5782ZM15.7681 26.2107C15.7421 26.1649 15.7248 26.1098 15.6988 26.064C14.8336 24.1294 13.8819 23.0658 12.9561 23.0016C11.7448 22.9191 10.7498 24.5053 10.7152 24.5511C9.83266 25.8073 8.98475 26.8709 8.15414 27.7419C9.12319 27.421 10.2307 27.2101 11.4679 27.0817C13.1378 26.9167 14.5567 26.6141 15.7681 26.2107ZM5.22106 21.0945L7.1851 20.3335C7.3841 20.251 7.60906 20.2968 7.7821 20.4343C7.94649 20.581 8.03302 20.8011 8.00706 21.0303C7.97245 21.3237 7.15049 27.1918 3.65502 29.3281C4.9615 29.0164 6.9688 27.7327 9.71154 23.8268C9.76345 23.7351 11.018 21.7088 12.8609 21.7088C12.9215 21.7088 12.9734 21.7088 13.034 21.718C14.4529 21.8188 15.7248 23.0933 16.8063 25.5139C16.8496 25.6056 16.8842 25.6881 16.9274 25.7798C18.407 25.1379 19.4971 24.3494 20.3018 23.4967C19.7307 22.2498 18.9693 20.9845 18.0003 19.7283C16.7198 18.078 15.4047 17.0052 14.0549 16.5009C13.3714 16.5559 12.6619 16.6109 11.9351 16.6384C11.9092 16.6384 11.8746 16.6384 11.8486 16.6384C11.7794 16.6293 11.3295 16.5834 10.6373 16.4642C8.27528 17.2619 6.33719 19.5175 5.22106 21.0945ZM10.5508 15.1439C11.5544 15.4373 14.1934 15.1898 14.1934 15.1898C16.9534 14.933 19.35 14.4654 21.3833 13.7961C21.4006 13.7503 21.4179 13.6953 21.4439 13.6402C20.8555 12.9893 19.8259 12.2007 18.5454 11.5589C17.6802 11.7606 16.8409 11.8156 16.0276 11.6965C14.825 11.5222 13.8559 11.0088 13.0945 10.422C11.9784 10.532 10.845 10.8621 9.7721 11.5406C7.66962 12.8609 5.71423 13.2918 4.13089 13.3377C6.48428 14.3279 9.01936 14.878 10.5508 15.1439Z" fill="white"/>
<path d="M67.9595 25.1761H64.6628V8.69838H55.2829V25.1761H52V5.82389H67.9595V25.1761Z" fill="white"/>
<path d="M76.0703 18.1586V25.1761H72.8011V5.82389H78.8015C81.0729 5.82389 82.8339 6.34121 84.0845 7.37584C85.3352 8.41048 85.9605 9.86797 85.9605 11.7483C85.9605 13.6287 85.3076 15.1671 84.0018 16.3637C82.6959 17.5603 80.9303 18.1586 78.7049 18.1586H76.0703ZM76.0703 8.46896V15.5405H78.1945C79.6015 15.5405 80.6728 15.2211 81.4085 14.5823C82.1442 13.9435 82.512 13.0439 82.512 11.8833C82.512 9.60706 81.1602 8.46896 78.4566 8.46896H76.0703Z" fill="white"/>
<path d="M97.3404 25.5C94.4897 25.5 92.2045 24.5958 90.4849 22.7874C88.7744 20.9791 87.9192 18.6264 87.9192 15.7294C87.9192 12.6165 88.7928 10.1334 90.5401 8.28003C92.2873 6.42668 94.6598 5.5 97.6577 5.5C100.435 5.5 102.669 6.39969 104.362 8.19906C106.063 9.99843 106.913 12.3511 106.913 15.2571C106.913 18.415 106.044 20.9116 104.306 22.747C102.568 24.5823 100.246 25.5 97.3404 25.5ZM97.4922 8.32051C95.6806 8.32051 94.2046 8.98178 93.0643 10.3043C91.9332 11.6269 91.3677 13.3677 91.3677 15.527C91.3677 17.6772 91.9194 19.4091 93.023 20.7227C94.1265 22.0362 95.5702 22.693 97.3542 22.693C99.2486 22.693 100.743 22.0677 101.837 20.8171C102.932 19.5666 103.479 17.8167 103.479 15.5675C103.479 13.2553 102.945 11.4694 101.879 10.2099C100.821 8.95029 99.3589 8.32051 97.4922 8.32051Z" fill="white"/>
<path d="M124.335 24.3664C122.845 25.1221 120.992 25.5 118.776 25.5C115.907 25.5 113.608 24.6138 111.879 22.8414C110.15 21.0691 109.286 18.7434 109.286 15.8644C109.286 12.7695 110.256 10.2683 112.196 8.361C114.146 6.45367 116.606 5.5 119.576 5.5C121.489 5.5 123.075 5.76541 124.335 6.29622V9.48111C123.002 8.70738 121.53 8.32051 119.921 8.32051C117.778 8.32051 116.04 8.99078 114.707 10.3313C113.383 11.6718 112.721 13.4622 112.721 15.7024C112.721 17.8347 113.341 19.5351 114.583 20.8036C115.824 22.0632 117.456 22.693 119.48 22.693C121.346 22.693 122.965 22.2611 124.335 21.3974V24.3664Z" fill="white"/>
<path d="M140.777 8.54993H135.094V25.1761H131.811V8.54993H126.142V5.82389H140.777V8.54993Z" fill="white"/>
<path d="M150.64 25.5C147.789 25.5 145.504 24.5958 143.784 22.7874C142.074 20.9791 141.219 18.6264 141.219 15.7294C141.219 12.6165 142.092 10.1334 143.84 8.28003C145.587 6.42668 147.959 5.5 150.957 5.5C153.734 5.5 155.969 6.39969 157.661 8.19906C159.362 9.99843 160.213 12.3511 160.213 15.2571C160.213 18.415 159.344 20.9116 157.606 22.747C155.868 24.5823 153.546 25.5 150.64 25.5ZM150.792 8.32051C148.98 8.32051 147.504 8.98178 146.364 10.3043C145.233 11.6269 144.667 13.3677 144.667 15.527C144.667 17.6772 145.219 19.4091 146.322 20.7227C147.426 22.0362 148.87 22.693 150.654 22.693C152.548 22.693 154.042 22.0677 155.137 20.8171C156.231 19.5666 156.778 17.8167 156.778 15.5675C156.778 13.2553 156.245 11.4694 155.178 10.2099C154.121 8.95029 152.658 8.32051 150.792 8.32051Z" fill="white"/>
<path d="M167.11 18.1586V25.1761H163.841V5.82389H169.841C172.112 5.82389 173.873 6.34121 175.124 7.37584C176.375 8.41048 177 9.86797 177 11.7483C177 13.6287 176.347 15.1671 175.041 16.3637C173.735 17.5603 171.97 18.1586 169.744 18.1586H167.11ZM167.11 8.46896V15.5405H169.234C170.641 15.5405 171.712 15.2211 172.448 14.5823C173.184 13.9435 173.552 13.0439 173.552 11.8833C173.552 9.60706 172.2 8.46896 169.496 8.46896H167.11Z" fill="white"/>
<path d="M54.9313 37.4958C54.0443 37.4958 53.3333 37.2156 52.7983 36.6553C52.2661 36.0949 52 35.3658 52 34.4681C52 33.5035 52.2718 32.734 52.8155 32.1597C53.3591 31.5854 54.0973 31.2982 55.03 31.2982C55.8941 31.2982 56.5894 31.577 57.1159 32.1346C57.6452 32.6922 57.9099 33.4212 57.9099 34.3217C57.9099 35.3003 57.6395 36.074 57.0987 36.6427C56.5579 37.2114 55.8355 37.4958 54.9313 37.4958ZM54.9785 32.1722C54.4149 32.1722 53.9557 32.3772 53.6009 32.787C53.2489 33.1968 53.073 33.7363 53.073 34.4054C53.073 35.0717 53.2446 35.6084 53.588 36.0154C53.9313 36.4225 54.3805 36.626 54.9356 36.626C55.525 36.626 55.99 36.4322 56.3305 36.0447C56.671 35.6572 56.8412 35.1149 56.8412 34.4179C56.8412 33.7014 56.6753 33.148 56.3433 32.7577C56.0143 32.3674 55.5594 32.1722 54.9785 32.1722Z" fill="white"/>
<path d="M60.0558 35.2209V37.3955H59.0386V31.3986H60.9056C61.6123 31.3986 62.1602 31.5589 62.5494 31.8795C62.9385 32.2001 63.133 32.6518 63.133 33.2344C63.133 33.8171 62.9299 34.2939 62.5236 34.6647C62.1173 35.0355 61.568 35.2209 60.8755 35.2209H60.0558ZM60.0558 32.2182V34.4096H60.7167C61.1545 34.4096 61.4878 34.3106 61.7167 34.1126C61.9456 33.9147 62.0601 33.6359 62.0601 33.2763C62.0601 32.5709 61.6395 32.2182 60.7983 32.2182H60.0558Z" fill="white"/>
<path d="M68.5451 31.3986L66.6309 35.5512C66.2761 36.3068 65.9328 36.8211 65.6009 37.0944C65.2718 37.3648 64.9113 37.5 64.5193 37.5C64.2074 37.5 63.9471 37.4568 63.7382 37.3704V36.4211C63.9871 36.566 64.226 36.6385 64.4549 36.6385C64.6581 36.6385 64.8441 36.5633 65.0129 36.4127C65.1845 36.2622 65.3691 35.9973 65.5665 35.6181L63.5107 31.3986H64.6738L65.9442 34.2423C65.97 34.3008 66.02 34.4458 66.0944 34.6772H66.103C66.1116 34.6493 66.166 34.5044 66.2661 34.2423L67.4635 31.3986H68.5451Z" fill="white"/>
<path d="M76.8283 37.3955H75.5193L73.3562 34.6814C73.2961 34.6033 73.2489 34.5336 73.2146 34.4723H73.1974V37.3955H72.2103V34.4723H72.1931C72.1559 34.542 72.1087 34.6117 72.0515 34.6814L69.8884 37.3955H68.5751L71.1845 34.2757L68.7597 31.3986H69.9914L72.03 33.9579C72.0959 34.0388 72.1502 34.1168 72.1931 34.1921H72.2103V31.3986H73.1974V34.1921H73.2146C73.2518 34.1224 73.3062 34.0443 73.3777 33.9579L75.4163 31.3986H76.6438L74.2232 34.2757L76.8283 37.3955Z" fill="white"/>
<path d="M80.9828 37.3955H77.5279V31.3986H80.8455V32.2433H78.5494V33.9412H80.6652V34.7818H78.5494V36.5549H80.9828V37.3955Z" fill="white"/>
<path d="M87.2961 37.3955H86.3133V33.4017C86.3133 33.0421 86.3276 32.7884 86.3562 32.6406H86.3305C86.2818 32.7661 86.2217 32.8818 86.1502 32.9877L83.1974 37.3955H82.0773V31.3986H83.0644V35.2125C83.0644 35.6502 83.0529 35.936 83.03 36.0698H83.0472C83.1044 35.9583 83.1788 35.8356 83.2704 35.7018L86.1202 31.3986H87.2961V37.3955ZM86.4034 29.5C86.3577 29.9182 86.1803 30.2486 85.8712 30.4911C85.5651 30.7309 85.1803 30.8508 84.7167 30.8508C84.2418 30.8508 83.8541 30.7309 83.5536 30.4911C83.2561 30.2486 83.093 29.9182 83.0644 29.5H83.8927C83.9328 30.0074 84.2117 30.2611 84.7296 30.2611C84.9585 30.2611 85.1474 30.1942 85.2961 30.0604C85.4478 29.9266 85.5408 29.7398 85.5751 29.5H86.4034Z" fill="white"/>
<path d="M93.7682 37.3955H92.7425V34.7943H89.8455V37.3955H88.824V31.3986H89.8455V33.9203H92.7425V31.3986H93.7682V37.3955Z" fill="white"/>
<path d="M101.103 37.3955H100.086V31.3986H101.103V37.3955ZM95.2876 37.3955V31.3986H96.3047V33.8116H97.3562C98.0086 33.8116 98.5165 33.9593 98.8798 34.2548C99.2432 34.5504 99.4249 34.9713 99.4249 35.5178C99.4249 36.0977 99.2332 36.5563 98.8498 36.8936C98.4692 37.2282 97.9499 37.3955 97.2918 37.3955H95.2876ZM96.3047 34.6187V36.5842H97.1888C97.5608 36.5842 97.8469 36.4963 98.0472 36.3207C98.2504 36.1451 98.3519 35.8997 98.3519 35.5847C98.3519 34.9407 97.9642 34.6187 97.1888 34.6187H96.3047Z" fill="white"/>
<path d="M107.845 37.3955H106.863V33.4017C106.863 33.0421 106.877 32.7884 106.906 32.6406H106.88C106.831 32.7661 106.771 32.8818 106.7 32.9877L103.747 37.3955H102.627V31.3986H103.614V35.2125C103.614 35.6502 103.602 35.936 103.579 36.0698H103.597C103.654 35.9583 103.728 35.8356 103.82 35.7018L106.67 31.3986H107.845V37.3955ZM106.953 29.5C106.907 29.9182 106.73 30.2486 106.421 30.4911C106.114 30.7309 105.73 30.8508 105.266 30.8508C104.791 30.8508 104.403 30.7309 104.103 30.4911C103.805 30.2486 103.642 29.9182 103.614 29.5H104.442C104.482 30.0074 104.761 30.2611 105.279 30.2611C105.508 30.2611 105.697 30.1942 105.845 30.0604C105.997 29.9266 106.09 29.7398 106.124 29.5H106.953Z" fill="white"/>
<path d="M118.403 37.3955H117.391V33.5146C117.391 33.1968 117.411 32.8079 117.451 32.3479H117.433C117.371 32.6099 117.315 32.7981 117.266 32.9124L115.429 37.3955H114.725L112.884 32.9459C112.833 32.8149 112.778 32.6155 112.721 32.3479H112.704C112.727 32.5876 112.738 32.9794 112.738 33.523V37.3955H111.794V31.3986H113.232L114.85 35.3923C114.973 35.699 115.053 35.9276 115.09 36.0781H115.112C115.217 35.7631 115.303 35.5289 115.369 35.3756L117.017 31.3986H118.403V37.3955Z" fill="white"/>
<path d="M124.979 37.3955H123.858L123.305 35.8691H120.884L120.352 37.3955H119.236L121.541 31.3986H122.691L124.979 37.3955ZM123.034 35.0578L122.18 32.6657C122.155 32.5876 122.127 32.4622 122.099 32.2893H122.082C122.056 32.4482 122.027 32.5737 121.996 32.6657L121.15 35.0578H123.034Z" fill="white"/>
<path d="M129.236 32.2601H126.85V37.3955H125.828V31.3986H129.236V32.2601Z" fill="white"/>
<path d="M134.635 37.3955H133.515L132.961 35.8691H130.541L130.009 37.3955H128.893L131.197 31.3986H132.348L134.635 37.3955ZM132.691 35.0578L131.837 32.6657C131.811 32.5876 131.784 32.4622 131.755 32.2893H131.738C131.712 32.4482 131.684 32.5737 131.652 32.6657L130.807 35.0578H132.691Z" fill="white"/>
<path d="M135.09 37.1613V36.2078C135.574 36.5423 136.123 36.7096 136.738 36.7096C137.142 36.7096 137.462 36.619 137.7 36.4378C137.94 36.2538 138.06 36.0085 138.06 35.7018C138.06 35.0327 137.575 34.6981 136.605 34.6981H135.897V33.9203H136.562C136.974 33.9203 137.293 33.8366 137.519 33.6694C137.745 33.5021 137.858 33.2665 137.858 32.9626C137.858 32.7006 137.763 32.4915 137.571 32.3353C137.379 32.1764 137.116 32.097 136.781 32.097C136.272 32.097 135.775 32.2475 135.292 32.5486V31.662C135.767 31.4195 136.315 31.2982 136.936 31.2982C137.554 31.2982 138.04 31.4362 138.395 31.7122C138.75 31.9855 138.927 32.3451 138.927 32.7912C138.927 33.5634 138.531 34.0513 137.738 34.2548V34.2716C138.162 34.319 138.498 34.4723 138.747 34.7316C138.999 34.9909 139.124 35.3115 139.124 35.6934C139.124 36.2426 138.914 36.6803 138.494 37.0065C138.073 37.3327 137.498 37.4958 136.768 37.4958C136.044 37.4958 135.485 37.3843 135.09 37.1613Z" fill="white"/>
<path d="M145.528 37.3955H144.545V33.4017C144.545 33.0421 144.559 32.7884 144.588 32.6406H144.562C144.514 32.7661 144.454 32.8818 144.382 32.9877L141.429 37.3955H140.309V31.3986H141.296V35.2125C141.296 35.6502 141.285 35.936 141.262 36.0698H141.279C141.336 35.9583 141.411 35.8356 141.502 35.7018L144.352 31.3986H145.528V37.3955Z" fill="white"/>
<path d="M152 37.3955H150.974V34.7943H148.077V37.3955H147.056V31.3986H148.077V33.9203H150.974V31.3986H152V37.3955Z" fill="white"/>
</svg>
