<svg width="25" height="30" viewBox="0 0 25 30" fill="white" xmlns="http://www.w3.org/2000/svg">
<path fill-rule="evenodd" clip-rule="evenodd" d="M12.5 14.9997C16.1819 14.9997 19.1667 11.7164 19.1667 7.66634C19.1667 3.61625 16.1819 0.333008 12.5 0.333008C8.8181 0.333008 5.83333 3.61625 5.83333 7.66634C5.83333 11.7164 8.8181 14.9997 12.5 14.9997ZM12.5 12.0663C10.2909 12.0663 8.5 10.0964 8.5 7.66634C8.5 5.23629 10.2909 3.26634 12.5 3.26634C14.7091 3.26634 16.5 5.23629 16.5 7.66634C16.5 10.0964 14.7091 12.0663 12.5 12.0663Z"/>
<path fill-rule="evenodd" clip-rule="evenodd" d="M21.9705 17.8113C20.8472 16.6842 19.1093 16.4411 17.7215 17.2646C17.4676 17.4153 17.2442 17.5531 17.0381 17.6803C16.4916 18.0176 16.0674 18.2794 15.5205 18.5041C14.8333 18.7864 13.9447 18.9997 12.5 18.9997C11.0691 18.9997 10.1657 18.7985 9.46812 18.526C8.8514 18.2851 8.3643 17.9823 7.72246 17.5835C7.59729 17.5057 7.46598 17.4241 7.32692 17.3387C5.93449 16.484 4.14619 16.6826 2.98553 17.8556C2.47925 18.3672 1.88715 19.0289 1.4132 19.7498C0.961375 20.4372 0.5 21.3514 0.5 22.333V25.6667C0.5 27.8761 2.29112 29.6664 4.5 29.6664H20.5C22.7089 29.6664 24.5 27.8761 24.5 25.6667V22.333C24.5 21.3384 24.0263 20.4119 23.5661 19.7185C23.0826 18.99 22.4803 18.3228 21.9705 17.8113ZM19.0823 19.5579C19.4012 19.3687 19.804 19.4151 20.0817 19.6937C20.5286 20.1421 20.9965 20.6692 21.3442 21.193C21.7151 21.7519 21.8333 22.1357 21.8333 22.333V25.6667C21.8333 26.4029 21.2366 26.9997 20.5 26.9997H4.5C3.76336 26.9997 3.16667 26.4029 3.16667 25.6667V22.333C3.16667 22.1396 3.28066 21.7636 3.6415 21.2147C3.98023 20.6994 4.43811 20.1788 4.88105 19.7312C5.15882 19.4505 5.58141 19.3962 5.93185 19.6114C6.04215 19.6791 6.15449 19.7492 6.26926 19.8208C6.91251 20.2224 7.63224 20.6717 8.49782 21.0098C9.55739 21.4238 10.7989 21.6664 12.5 21.6664C14.2336 21.6664 15.4751 21.4057 16.5339 20.9707C17.3008 20.6556 17.9773 20.2373 18.5745 19.8679C18.7505 19.759 18.9197 19.6544 19.0823 19.5579Z"/>
</svg>
