<svg width="31" height="30" viewBox="0 0 31 30" fill="white" xmlns="http://www.w3.org/2000/svg">
<path fill-rule="evenodd" clip-rule="evenodd" d="M2.16634 0.333008C1.42996 0.333008 0.833008 0.929962 0.833008 1.66634C0.833008 2.40272 1.42996 2.99967 2.16634 2.99967H3.79197L8.54428 22.0089C7.14335 22.6311 6.16634 24.0346 6.16634 25.6663C6.16634 27.8755 7.9572 29.6663 10.1663 29.6663C12.3755 29.6663 14.1663 27.8755 14.1663 25.6663C14.1663 25.1988 14.0861 24.75 13.9387 24.333H19.7273C19.5799 24.75 19.4997 25.1988 19.4997 25.6663C19.4997 27.8755 21.2905 29.6663 23.4997 29.6663C25.7088 29.6663 27.4997 27.8755 27.4997 25.6663C27.4997 23.4572 25.7088 21.6663 23.4997 21.6663H11.2074L10.5407 18.9997H23.4997C26.2519 18.9997 27.9022 17.2608 28.818 15.3408C29.7128 13.4646 30.0244 11.2222 30.133 9.59125C30.2843 7.31986 28.4067 5.66634 26.3278 5.66634H7.20738L6.37902 2.35291C6.08224 1.1658 5.01562 0.333008 3.79197 0.333008H2.16634ZM23.4997 16.333H9.87404L7.87404 8.33301H26.3278C27.0652 8.33301 27.5081 8.87534 27.4722 9.41405C27.3709 10.9359 27.0871 12.7754 26.4111 14.1928C25.7559 15.5664 24.8598 16.333 23.4997 16.333ZM23.4997 26.9914C22.7678 26.9914 22.1746 26.3982 22.1746 25.6663C22.1746 24.9345 22.7678 24.3412 23.4997 24.3412C24.2315 24.3412 24.8248 24.9345 24.8248 25.6663C24.8248 26.3982 24.2315 26.9914 23.4997 26.9914ZM8.84124 25.6663C8.84124 26.3982 9.43451 26.9914 10.1663 26.9914C10.8982 26.9914 11.4914 26.3982 11.4914 25.6663C11.4914 24.9345 10.8982 24.3412 10.1663 24.3412C9.43451 24.3412 8.84124 24.9345 8.84124 25.6663Z" />
</svg>
