<svg width="28" height="29" viewBox="0 0 28 29" fill="white" xmlns="http://www.w3.org/2000/svg">
<path d="M23.3337 8.4251C23.3337 7.32053 24.2291 6.4251 25.3337 6.4251C26.4382 6.4251 27.3336 7.32053 27.3336 8.4251V26.4251C27.3336 27.5297 26.4382 28.4251 25.3337 28.4251C24.2291 28.4251 23.3337 27.5297 23.3337 26.4251V8.4251Z"/>
<path d="M17.3337 0.425095C16.2291 0.425095 15.3337 1.32053 15.3337 2.4251V26.4251C15.3337 27.5297 16.2291 28.4251 17.3337 28.4251C18.4382 28.4251 19.3337 27.5297 19.3337 26.4251V2.42509C19.3337 1.32053 18.4382 0.425095 17.3337 0.425095Z"/>
<path d="M8.00033 8.33302C8.00033 7.22845 8.89576 6.33302 10.0003 6.33302C11.1049 6.33302 12.0003 7.22845 12.0003 8.33302V26.333C12.0003 27.4376 11.1049 28.333 10.0003 28.333C8.89576 28.333 8.00033 27.4376 8.00033 26.333V8.33302Z"/>
<path d="M2.66699 0.333008C1.56243 0.333008 0.666992 1.22844 0.666992 2.33301V26.333C0.666992 27.4376 1.56243 28.333 2.66699 28.333C3.77156 28.333 4.66699 27.4376 4.66699 26.333V2.33301C4.66699 1.22844 3.77156 0.333008 2.66699 0.333008Z"/>
</svg>
