<svg width="24" height="24" viewBox="0 0 24 24" fill="#B1B1B1" xmlns="http://www.w3.org/2000/svg">
<path fill-rule="evenodd" clip-rule="evenodd" d="M11.5565 22.646C12.353 23.0443 13.3191 22.6649 13.6318 21.8311L16.1935 15L20.0005 15C21.6573 15 23.0005 13.6569 23.0005 12L23.0005 4C23.0005 2.34315 21.6573 1 20.0005 1L5.62674 1C4.20571 1 2.97963 1.99698 2.6898 3.38814L1.02314 11.3881C0.635023 13.2511 2.05714 15 3.96008 15H9.11304L8.37457 17.2154C7.74509 19.1039 8.60001 21.1678 10.3805 22.058L11.5565 22.646ZM14.3208 14.2978L11.9542 20.6088L11.2749 20.2692C10.3847 19.8241 9.9572 18.7921 10.2719 17.8479L11.0104 15.6325C11.4421 14.3374 10.4782 13 9.11304 13H3.96008C3.32576 13 2.85173 12.417 2.9811 11.7961L3.14694 11L7.00047 11C7.55275 11 8.00047 10.5523 8.00047 10C8.00047 9.44772 7.55275 9.00001 7.00047 9.00001L3.5636 9.00001L3.98027 7.00001L7.00047 7.00001C7.55275 7.00001 8.00047 6.55229 8.00047 6.00001C8.00047 5.44772 7.55275 5.00001 7.00047 5.00001L4.39694 5.00001L4.64776 3.79605C4.74437 3.33233 5.15307 3 5.62674 3L16.0005 3L16.0005 13.0093C15.2463 13.0821 14.5907 13.5779 14.3208 14.2978ZM18.0005 13H20.0005C20.5528 13 21.0005 12.5523 21.0005 12L21.0005 4C21.0005 3.44772 20.5528 3 20.0005 3L18.0005 3L18.0005 13Z"/>
</svg>
