<svg width="16" height="16" viewBox="0 0 16 16" fill="#73A5E1" xmlns="http://www.w3.org/2000/svg">
<path fill-rule="evenodd" clip-rule="evenodd" d="M6.2962 1.52141C6.74951 0.420516 8.30871 0.420522 8.76201 1.52141L10.3195 5.30388L13.8127 5.50936C15.0379 5.58143 15.5233 7.13058 14.5582 7.88882L11.6502 10.1737L12.8093 13.4577C13.2389 14.6752 11.8604 15.7316 10.7966 15.0002L7.52911 12.7538L4.26164 15.0002C3.19779 15.7316 1.81927 14.6752 2.24895 13.4577L3.40802 10.1737L0.5 7.88882C-0.465033 7.13058 0.0203036 5.58143 1.24547 5.50936L4.73872 5.30388L6.2962 1.52141ZM7.52911 2.02907L7.9317 8.9141L7.80622 6.76809L7.52911 2.02907Z"/>
</svg>
