<svg width="32" height="28" viewBox="0 0 32 28" fill="white" xmlns="http://www.w3.org/2000/svg">
<path fill-rule="evenodd" clip-rule="evenodd" d="M4.6521 6.00548C3.68455 7.66415 3.36612 9.9657 3.96059 12.3436C4.17452 13.1993 4.79645 14.2994 5.7821 15.5656C6.74862 16.8073 7.98227 18.1053 9.28889 19.3506C11.8797 21.82 14.6678 23.9983 16.0004 25.0056C17.333 23.9983 20.1211 21.82 22.7119 19.3506C24.0185 18.1053 25.2522 16.8073 26.2187 15.5656C27.2044 14.2994 27.8263 13.1993 28.0402 12.3436C28.6347 9.9657 28.3163 7.66416 27.3487 6.00549C26.4043 4.38652 24.8273 3.33366 22.6671 3.33366C20.7876 3.33366 19.4629 4.72336 18.5263 6.59661C18.0763 7.4967 17.7704 8.41025 17.5768 9.10719C17.4807 9.45311 17.4139 9.73946 17.3718 9.93595C17.2226 10.6322 16.4195 10.667 16.0004 10.667C15.5814 10.667 14.7768 10.6257 14.629 9.93595C14.5868 9.73947 14.5201 9.45311 14.424 9.10719C14.2304 8.41026 13.9245 7.49671 13.4745 6.59661C12.5378 4.72337 11.2132 3.33366 9.33371 3.33366C7.17347 3.33366 5.59649 4.38652 4.6521 6.00548ZM16.0004 5.69381C16.0459 5.59745 16.0928 5.5008 16.1412 5.40404C17.2046 3.27729 19.2132 0.666992 22.6671 0.666992C25.8401 0.666992 28.2632 2.2808 29.6521 4.66183C31.0179 7.00316 31.3661 10.035 30.6273 12.9904C30.2772 14.3906 29.3809 15.8446 28.323 17.2037C27.2459 18.5873 25.9106 19.9858 24.5518 21.2809C21.8326 23.8726 18.928 26.1366 17.5751 27.1581C16.6408 27.8635 15.36 27.8635 14.4257 27.1581C13.0728 26.1366 10.1682 23.8726 7.44905 21.2809C6.09018 19.9858 4.75488 18.5873 3.67782 17.2037C2.61988 15.8446 1.7236 14.3906 1.37355 12.9904C0.634693 10.035 0.982919 7.00316 2.34869 4.66183C3.73762 2.2808 6.16063 0.666992 9.33371 0.666992C12.7876 0.666992 14.7962 3.27728 15.8596 5.40404C15.908 5.50079 15.9549 5.59745 16.0004 5.69381Z"/>
</svg>
