<svg width="17" height="17" viewBox="0 0 17 17" fill="white" xmlns="http://www.w3.org/2000/svg">
<path fill-rule="evenodd" clip-rule="evenodd" d="M0.754255 0.5C0.352254 0.5 0.0263672 0.825611 0.0263672 1.22727C0.0263672 1.62893 0.352254 1.95455 0.754255 1.95455H1.64171L4.23607 12.3232C3.47128 12.6626 2.93792 13.4282 2.93792 14.3182C2.93792 15.5232 3.91558 16.5 5.12158 16.5C6.32759 16.5 7.30525 15.5232 7.30525 14.3182C7.30525 14.0632 7.26146 13.8184 7.18099 13.5909H10.3411C10.2606 13.8184 10.2168 14.0632 10.2168 14.3182C10.2168 15.5232 11.1945 16.5 12.4005 16.5C13.6065 16.5 14.5841 15.5232 14.5841 14.3182C14.5841 13.1132 13.6065 12.1364 12.4005 12.1364H5.6899L5.32596 10.6818H12.4005C13.9029 10.6818 14.8039 9.73337 15.3038 8.68607C15.7923 7.6627 15.9624 6.43958 16.0217 5.54995C16.1043 4.31101 15.0793 3.40909 13.9444 3.40909H3.50624L3.05402 1.60177C2.89201 0.954251 2.30972 0.5 1.64171 0.5H0.754255ZM12.4005 9.22727H4.96201L3.87018 4.86364H13.9444C14.347 4.86364 14.5887 5.15945 14.5691 5.4533C14.5138 6.28342 14.3589 7.28675 13.9898 8.05991C13.6322 8.80914 13.143 9.22727 12.4005 9.22727ZM12.4005 15.041C12.0009 15.041 11.6771 14.7174 11.6771 14.3182C11.6771 13.919 12.0009 13.5954 12.4005 13.5954C12.8 13.5954 13.1239 13.919 13.1239 14.3182C13.1239 14.7174 12.8 15.041 12.4005 15.041ZM4.39819 14.3182C4.39819 14.7174 4.72206 15.041 5.12158 15.041C5.5211 15.041 5.84498 14.7174 5.84498 14.3182C5.84498 13.919 5.5211 13.5954 5.12158 13.5954C4.72206 13.5954 4.39819 13.919 4.39819 14.3182Z"/>
</svg>
